<?xml version="1.0" encoding="utf-8"?>
<!-- Generator: Adobe Illustrator 24.3.0, SVG Export Plug-In . SVG Version: 6.00 Build 0)  -->
<svg version="1.1" id="Layer_1" xmlns="http://www.w3.org/2000/svg" xmlns:xlink="http://www.w3.org/1999/xlink" x="0px" y="0px"
	 viewBox="0 0 32 32" style="enable-background:new 0 0 32 32;" xml:space="preserve">
<style type="text/css">
	.st0{fill:none;}
	.st1{fill:#31C4BC;}
</style>
<g>
	<path class="st0" d="M13.9,15.9l1.1-2.8C14.5,14,14.2,14.9,13.9,15.9z"/>
	<path d="M4,2.5c-0.2-0.6-0.8-1-1.4-1C1.7,1.5,1,2.2,1,3c0,0.2,0,0.4,0.1,0.6l8.1,20c0.4,0.9,1.3,1.6,2.4,1.6c0.3,0,0.6-0.1,0.9-0.2
		c-1-1.6-1.7-3.5-1.8-5.5L4,2.5z"/>
	<path class="st1" d="M22.6,8.8c2.4,0,4.5,1,6,2.7c0.2,0.3,0.6,0.5,1.1,0.5c0.7,0,1.4-0.6,1.4-1.4c0-0.4-0.1-0.7-0.4-0.9
		c-2.1-2.3-4.8-3.4-8.1-3.4c-0.6,0-1.1,0-1.6,0.1l-1.2,3C20.6,9,21.6,8.8,22.6,8.8z"/>
	<path class="st1" d="M29.6,24.8c-0.5,0-0.8,0.1-1.1,0.5c-1.4,1.7-3.6,2.7-6,2.7c-3.7,0-6.7-2.2-8.1-5.5L14,23.6
		c-0.3,0.7-0.8,1.2-1.5,1.5c2.1,3.4,5.9,5.5,10.1,5.4c3.4,0,5.9-1.2,8.1-3.4c0.2-0.2,0.4-0.6,0.4-0.9C31,25.4,30.4,24.8,29.6,24.8z"
		/>
	<path class="st1" d="M13.9,15.9c0.2-1,0.6-2,1.1-2.8l2.2-5.7c-4,1.9-6.7,6-6.6,11c0,0.4,0,0.8,0,1.2l0.9,2.4L13.9,15.9z"/>
	<path class="st1" d="M14,23.6l0.5-1.2c-0.5-1.2-0.8-2.6-0.8-4.1c0-0.9,0.1-1.7,0.3-2.4l-2.3,6l-0.9-2.4c0.1,2.1,0.8,3.9,1.8,5.5
		C13.2,24.8,13.7,24.3,14,23.6z"/>
	<path d="M20.6,1.5c-0.7,0-1.2,0.4-1.4,1l-1.9,4.9L15,13.1l-1.1,2.8c-0.2,0.8-0.3,1.6-0.3,2.4c0,1.5,0.3,2.9,0.8,4.1l5.3-13.2l1.2-3
		L22,3.6c0.1-0.2,0.1-0.4,0.1-0.6C22.2,2.2,21.5,1.5,20.6,1.5z"/>
</g>
<g>
</g>
<g>
</g>
<g>
</g>
<g>
</g>
<g>
</g>
<g>
</g>
<g>
</g>
<g>
</g>
<g>
</g>
<g>
</g>
<g>
</g>
<g>
</g>
<g>
</g>
<g>
</g>
<g>
</g>
</svg>
