<?xml version="1.0" encoding="utf-8"?>
<!-- Generator: Adobe Illustrator 24.3.0, SVG Export Plug-In . SVG Version: 6.00 Build 0)  -->
<svg version="1.1" id="Layer_1" xmlns="http://www.w3.org/2000/svg" xmlns:xlink="http://www.w3.org/1999/xlink" x="0px" y="0px"
	 viewBox="0 0 150 30" style="enable-background:new 0 0 150 30;" xml:space="preserve">
<style type="text/css">
	.st0{fill:#31C4BC;}
</style>
<g>
	<path d="M2.3,4.2C2.2,4,2.2,3.8,2.2,3.5c0-0.9,0.7-1.7,1.7-1.7c0.7,0,1.4,0.4,1.6,1.1L14,24.6l8.5-21.7c0.3-0.7,0.9-1.1,1.6-1.1
		c0.9,0,1.7,0.8,1.7,1.7c0,0.2,0,0.4-0.2,0.6l-9,22.3c-0.4,1.1-1.5,1.8-2.7,1.8c-1.2,0-2.2-0.7-2.7-1.8L2.3,4.2z"/>
	<path d="M31.3,1.4c1.1,0,2,0.9,2,2c0,1.1-0.9,2-2,2c-1.1,0-2-0.9-2-2C29.3,2.3,30.2,1.4,31.3,1.4z M29.8,10.5
		c0-0.8,0.7-1.5,1.5-1.5c0.8,0,1.5,0.7,1.5,1.5v16.4c0,0.8-0.7,1.5-1.5,1.5c-0.8,0-1.5-0.7-1.5-1.5V10.5z"/>
	<path d="M55.4,26.9c0,0.8-0.7,1.5-1.5,1.5c-0.8,0-1.5-0.7-1.5-1.5v-1.5c-1.5,2-3.8,3.3-6.4,3.3c-4.9,0-8.4-3.8-8.4-9.9
		c0-6,3.5-10,8.4-10c2.5,0,4.8,1.2,6.4,3.4V3.3c0-0.8,0.7-1.5,1.5-1.5c0.8,0,1.5,0.7,1.5,1.5V26.9z M52.4,14.4
		c-1.1-1.7-3.5-3.1-5.7-3.1c-1.8,0-3.3,0.7-4.4,2.1c-1.1,1.4-1.6,3.1-1.6,5.3c0,2.2,0.5,3.9,1.6,5.3c1.1,1.4,2.6,2,4.4,2
		c2.3,0,4.6-1.3,5.7-3V14.4z"/>
	<path d="M78.6,18.1c0,0.9-0.6,1.5-1.7,1.5H63.2c0.1,1.8,0.8,3.4,2,4.7c1.2,1.3,2.8,1.9,4.8,1.9c1.9,0,3.6-0.6,5.1-1.8
		c0.2-0.1,0.4-0.2,0.7-0.2c0.7,0,1.2,0.5,1.2,1.2c0,0.4-0.2,0.7-0.5,1c-1.9,1.5-4.2,2.2-6.8,2.2c-5.6,0-9.7-4.1-9.7-10
		c0-5.5,4-9.9,9.3-9.9C75.1,8.7,78.6,13.1,78.6,18.1z M75.7,17.5c-0.1-3.1-2.1-6.3-6.2-6.3c-3.9,0-6,3.3-6.2,6.3H75.7z"/>
	<path d="M91.6,8.7c5.7,0,9.4,4.4,9.4,9.9s-3.7,10-9.4,10s-9.4-4.4-9.4-10S86,8.7,91.6,8.7z M91.6,11.3c-4,0-6.3,3.4-6.3,7.3
		c0,4,2.4,7.3,6.3,7.3c3.9,0,6.3-3.4,6.3-7.3C97.9,14.7,95.5,11.3,91.6,11.3z"/>
	<path class="st0" d="M118.2,1.5c3.7,0,6.6,1.3,9,3.8c0.3,0.3,0.4,0.6,0.4,1.1c0,0.8-0.7,1.5-1.5,1.5c-0.5,0-0.9-0.2-1.2-0.5
		c-1.7-1.9-4-3-6.7-3c-5.6,0-10,4.4-10,10.6c0,6.1,4.4,10.6,10,10.6c2.6,0,5.1-1.1,6.7-3c0.3-0.4,0.7-0.5,1.2-0.5
		c0.8,0,1.5,0.7,1.5,1.5c0,0.4-0.1,0.8-0.4,1.1c-2.4,2.5-5.2,3.8-9,3.8c-7.3,0.2-13.5-5.7-13.3-13.5C104.7,7.2,110.8,1.4,118.2,1.5z
		"/>
	<path class="st0" d="M132.2,3.4c0-0.9,0.7-1.6,1.6-1.6c0.9,0,1.6,0.7,1.6,1.6v21.8h10.9c0.8,0,1.5,0.7,1.5,1.5s-0.7,1.5-1.5,1.5
		h-12.4c-1.1,0-1.7-0.6-1.7-1.7V3.4z"/>
</g>
<g>
</g>
<g>
</g>
<g>
</g>
<g>
</g>
<g>
</g>
<g>
</g>
<g>
</g>
<g>
</g>
<g>
</g>
<g>
</g>
<g>
</g>
<g>
</g>
<g>
</g>
<g>
</g>
<g>
</g>
</svg>
